# xmcd CD database file
# Copyright (C) 1993-1998 Ti Kan
#
# Track frame offsets:
#  150
#  21737
#  41487
#  61807
#  83762
#  102095
#  121370
#  140782
#  157097
#  175802
#  190187
#  210330
#  229650
#  245692
#  263420
#  283825
#
# Disc length: 4030 seconds
#
# Revision: 1
# Processed by: cddbd v1.4b41PL1 Copyright (c) Steve Scherf et al.
# Submitted via: CDWizzard Release:4.35
#
DISCID=e10fbc10
DTITLE=Various Artist - Players Club Soundtrack
DYEAR=1900
DGENRE=
TTITLE0=ICE CUBE "We Be Clubbin"
TTITLE1=ICE CUBE "We Be Clubbin" Remix featuring DMX
TTITLE2=ICE CUBE featuring MR. SHORT KHOP "Who Are You Lovin"
TTITLE3=CHANGING FACES "Same Tempo"
TTITLE4=KURUPT "Under Pressure"
TTITLE5=MASTER P AND ICE CUBE "You Know I'm A Ho"
TTITLE6=PRESSHA "Splackavellie"
TTITLE7=MACK 10 and SCARFACE "Your Delinquent"
TTITLE8=JAY-Z featuring MEMPHIS BLEEK and SAUCE MONEY "From Marcey To Holly
TTITLE8=wood"
TTITLE9=BROWNSTONE "Don't Play Me Wrong"
TTITLE10=MIA X "Shake Whatcha Mama Gave Ya (But Make Sho Your Niggas Pay 
TTITLE10=Ya)"
TTITLE11=PUBLIC ANNOUNCEMENT "What A Woman Feels"
TTITLE12=RUFUS BLAQ featuring SPINDARELLA "Don't Worry (My Shorty)"
TTITLE13=ICE CUBE featuring MR. SHORT KHOP "My Loved One"
TTITLE14=MR. DALVIN "Get Mine"
TTITLE15=EMMAGE featuring MR. SHORT KHOP and LIL' MO "Dreamin"
EXTD=
EXTT0=
EXTT1=
EXTT2=
EXTT3=
EXTT4=
EXTT5=
EXTT6=
EXTT7=
EXTT8=
EXTT9=
EXTT10=
EXTT11=
EXTT12=
EXTT13=
EXTT14=
EXTT15=
PLAYORDER=
